<svg width="25" height="25" viewBox="0 0 25 25" fill="none" xmlns="http://www.w3.org/2000/svg">
<g clip-path="url(#clip0_25_912)">
<path d="M12.5925 0.521484C18.6714 0.521499 23.5994 5.44944 23.5994 11.5283C23.5993 17.6072 18.6714 22.5351 12.5925 22.5352C6.51365 22.5352 1.58571 17.6072 1.58569 11.5283C1.58569 5.44943 6.51364 0.521484 12.5925 0.521484ZM12.5925 2.21484C7.44885 2.21484 3.27905 6.38464 3.27905 11.5283C3.27907 16.672 7.44886 20.8418 12.5925 20.8418C17.7362 20.8418 21.906 16.672 21.906 11.5283C21.906 6.38465 17.7362 2.21486 12.5925 2.21484ZM18.4041 9.18555L12.5212 15.2822L11.8875 15.9395L11.1667 15.3789L6.8894 12.0537L7.51245 11.251L8.1355 10.4492L11.6921 13.2139L16.9412 7.77539L18.4041 9.18555Z" fill="#2D1817"/>
</g>
<defs>
<clipPath id="clip0_25_912">
<rect width="24.3843" height="24.3843" fill="white" transform="translate(0.400391 0.352051)"/>
</clipPath>
</defs>
</svg>
