<svg width="25" height="24" viewBox="0 0 25 24" fill="none" xmlns="http://www.w3.org/2000/svg">
<path d="M12.5 2C18.023 2 22.5 6.477 22.5 12C22.5 17.523 18.023 22 12.5 22C6.977 22 2.5 17.523 2.5 12C2.5 6.477 6.977 2 12.5 2ZM12.5 4C10.3783 4 8.34344 4.84285 6.84315 6.34315C5.34285 7.84344 4.5 9.87827 4.5 12C4.5 14.1217 5.34285 16.1566 6.84315 17.6569C8.34344 19.1571 10.3783 20 12.5 20C14.6217 20 16.6566 19.1571 18.1569 17.6569C19.6571 16.1566 20.5 14.1217 20.5 12C20.5 9.87827 19.6571 7.84344 18.1569 6.34315C16.6566 4.84285 14.6217 4 12.5 4ZM12.5 6C12.7449 6.00003 12.9813 6.08996 13.1644 6.25272C13.3474 6.41547 13.4643 6.63975 13.493 6.883L13.5 7V11.586L16.207 14.293C16.3863 14.473 16.4905 14.7144 16.4982 14.9684C16.506 15.2223 16.4168 15.4697 16.2488 15.6603C16.0807 15.8508 15.8464 15.9703 15.5935 15.9944C15.3406 16.0185 15.088 15.9454 14.887 15.79L14.793 15.707L11.793 12.707C11.6376 12.5514 11.5378 12.349 11.509 12.131L11.5 12V7C11.5 6.73478 11.6054 6.48043 11.7929 6.29289C11.9804 6.10536 12.2348 6 12.5 6Z" fill="#9CB31A"/>
</svg>
