<svg width="42" height="41" viewBox="0 0 42 41" fill="none" xmlns="http://www.w3.org/2000/svg">
<circle cx="20.9311" cy="20.5385" r="20.3203" fill="#9CB31A"/>
<rect width="20.3203" height="20.3203" transform="translate(10.771 10.3784)" fill="#9CB31A"/>
<path d="M28.5512 20.1152C28.5541 21.2327 28.293 22.3351 27.7892 23.3326C27.1918 24.5279 26.2735 25.5333 25.137 26.2361C24.0005 26.9389 22.6907 27.3115 21.3545 27.312C20.237 27.3149 19.1346 27.0538 18.1371 26.55L13.311 28.1587L14.9197 23.3326C14.4159 22.3351 14.1548 21.2327 14.1577 20.1152C14.1582 18.779 14.5308 17.4692 15.2336 16.3327C15.9364 15.1963 16.9418 14.2779 18.1371 13.6805C19.1346 13.1767 20.237 12.9156 21.3545 12.9185H21.7778C23.5426 13.0158 25.2094 13.7607 26.4592 15.0105C27.709 16.2603 28.4539 17.9271 28.5512 19.6919V20.1152Z" stroke="white" stroke-width="1.69335" stroke-linecap="round" stroke-linejoin="round"/>
</svg>
