<svg width="17" height="14" viewBox="0 0 17 14" fill="none" xmlns="http://www.w3.org/2000/svg">
<path d="M1.94137 8.11767L11.3123 8.11767L8.47978 10.9502C8.36509 11.0649 8.27411 11.201 8.21204 11.3509C8.14997 11.5007 8.11803 11.6614 8.11803 11.8235C8.11803 11.9857 8.14997 12.1464 8.21204 12.2962C8.27411 12.4461 8.36509 12.5822 8.47978 12.6969C8.59447 12.8116 8.73063 12.9026 8.88048 12.9646C9.03033 13.0267 9.19094 13.0587 9.35313 13.0587C9.51533 13.0587 9.67594 13.0267 9.82579 12.9646C9.97564 12.9026 10.1118 12.8116 10.2265 12.6969L16.041 6.88237L10.2265 1.06784C10.112 0.952731 9.97595 0.861381 9.82607 0.799047C9.67619 0.736712 9.51546 0.704622 9.35313 0.704622C9.19081 0.704622 9.03008 0.736712 8.8802 0.799047C8.73032 0.861381 8.59423 0.952731 8.47978 1.06784C8.2482 1.29949 8.1181 1.61364 8.1181 1.9412C8.1181 2.26875 8.2482 2.5829 8.47978 2.81455L11.3123 5.64708L1.94137 5.64708C1.61375 5.64708 1.29955 5.77723 1.06788 6.00889C0.836222 6.24055 0.706076 6.55475 0.706076 6.88237C0.706076 7.20999 0.836222 7.5242 1.06788 7.75586C1.29955 7.98752 1.61375 8.11767 1.94137 8.11767Z" fill="white"/>
</svg>
