<svg width="23" height="23" viewBox="0 0 23 23" fill="none" xmlns="http://www.w3.org/2000/svg">
<g clip-path="url(#clip0_27_1108)">
<path d="M11.5 0C5.14805 0 0 5.14805 0 11.5C0 17.852 5.14805 23 11.5 23C17.852 23 23 17.852 23 11.5C23 5.14805 17.852 0 11.5 0ZM11.5 21.0818C6.2082 21.0818 1.91816 16.7918 1.91816 11.5C1.91816 6.2082 6.2082 1.91816 11.5 1.91816C16.7918 1.91816 21.0818 6.2082 21.0818 11.5C21.0818 16.7918 16.7918 21.0818 11.5 21.0818ZM10.5432 9.58184L8.14434 7.1875L6.70684 8.625L12.4568 14.375V3.83184H10.5387V9.58184H10.5432Z" fill="#9CB31A"/>
</g>
<defs>
<clipPath id="clip0_27_1108">
<rect width="23" height="23" fill="white"/>
</clipPath>
</defs>
</svg>
