<svg width="23" height="23" viewBox="0 0 23 23" fill="none" xmlns="http://www.w3.org/2000/svg">
<g clip-path="url(#clip0_2001_15)">
<path d="M15.8125 10.0625C15.8125 12.4488 13.8863 14.375 11.5 14.375C9.11375 14.375 7.1875 12.4488 7.1875 10.0625C7.1875 7.67625 9.11375 5.75 11.5 5.75C13.8863 5.75 15.8125 7.67625 15.8125 10.0625Z" fill="white"/>
<path fill-rule="evenodd" clip-rule="evenodd" d="M23 11.5C23 17.8538 17.8538 23 11.5 23C5.14625 23 0 17.8538 0 11.5C0 5.14625 5.14625 0 11.5 0C17.8538 0 23 5.14625 23 11.5ZM5.75 19.7656C5.98 19.3832 8.20813 15.8125 11.4856 15.8125C14.7487 15.8125 16.9912 19.3919 17.2212 19.7656C18.5579 18.8413 19.6501 17.6061 20.4038 16.1663C21.1575 14.7265 21.5502 13.1252 21.5481 11.5C21.5481 5.93688 17.0487 1.4375 11.4856 1.4375C5.9225 1.4375 1.42313 5.93688 1.42313 11.5C1.42313 14.9213 3.13375 17.9544 5.75 19.7656Z" fill="white"/>
</g>
<defs>
<clipPath id="clip0_2001_15">
<rect width="23" height="23" fill="white"/>
</clipPath>
</defs>
</svg>
